<svg width="70" height="110" viewBox="0 0 210 247" fill="none" xmlns="http://www.w3.org/2000/svg">
<path d="M45.3015 171.567C47.3331 171.567 49.3344 172.219 49.3344 172.219C49.395 168.436 48.9402 166.708 46.2415 166.708C43.6338 166.708 41.3899 167.49 40.5409 167.849C40.0557 168.045 39.7828 167.784 39.6312 167.327L39.237 166.056C39.0551 165.436 39.328 165.142 39.7525 164.914C40.0254 164.751 42.7847 163.577 46.3628 163.577C51.2144 163.577 52.397 166.251 52.397 172.219V183.568C52.397 184.09 51.9724 184.546 51.4873 184.546H50.5776C50.0621 184.546 49.9105 184.253 49.7589 183.763L49.3647 182.394C48.3641 183.47 46.4234 185.068 43.4518 185.068C40.1164 185.068 37.5996 182.459 37.5996 178.35C37.6906 174.469 40.4196 171.567 45.3015 171.567ZM44.0886 182.002C46.4538 182.002 48.5157 180.404 49.3344 179.133V175.089C48.7583 174.73 47.4241 174.274 45.3318 174.274C42.6635 174.274 40.7531 175.708 40.7531 178.383C40.7531 180.404 42.0267 182.002 44.0886 182.002Z" fill="#32313a"/>
<path d="M76.563 163.577C81.5662 163.577 85.1745 167.556 85.1745 172.937C85.1745 173.295 85.1139 173.947 85.0836 174.306C85.0229 174.828 84.659 175.187 84.2345 175.187H70.5288C70.7107 178.611 73.5307 181.839 76.8965 181.839C78.8978 181.839 80.5049 181.024 81.5965 180.307C82.2636 179.883 82.5365 179.654 82.9307 180.209C83.2036 180.633 83.4461 180.991 83.7494 181.383C84.0829 181.839 84.2649 182.165 83.5674 182.72C82.4152 183.698 79.8681 185.068 76.563 185.068C70.8017 185.068 67.2236 180.209 67.2236 174.306C67.2236 168.534 70.8017 163.577 76.563 163.577ZM81.8997 172.317C81.7481 169.349 79.4739 166.675 76.563 166.675C73.3791 166.675 70.8926 169.121 70.5591 172.317H81.8997Z" fill="#32313a"/>
<path d="M104.094 174.111L98.0602 165.403C97.575 164.751 97.8782 164.066 98.6666 164.066H100.668C101.001 164.066 101.274 164.262 101.426 164.49L105.944 171.437H106.005L110.705 164.49C110.856 164.295 111.129 164.066 111.463 164.066H113.464C114.283 164.066 114.556 164.719 114.07 165.403L108.036 174.045L114.131 183.209C114.556 183.861 114.283 184.546 113.525 184.546H111.766C111.493 184.546 111.19 184.285 111.038 184.09L106.005 176.556H105.944L101.001 184.122C100.85 184.318 100.577 184.546 100.243 184.546H98.4847C97.666 184.546 97.4234 183.894 97.8782 183.209L104.094 174.111Z" fill="#32313a"/>
<path d="M136.208 163.577C141.484 163.577 145.668 168.501 145.668 174.274C145.668 180.144 141.484 185.068 136.208 185.068C130.932 185.068 126.747 180.144 126.747 174.274C126.747 168.501 130.932 163.577 136.208 163.577ZM136.208 181.742C139.695 181.742 142.393 178.415 142.393 174.274C142.393 170.23 139.695 166.969 136.208 166.969C132.721 166.969 130.022 170.23 130.022 174.274C130.022 178.415 132.721 181.742 136.208 181.742Z" fill="#32313a"/>
<path d="M160.557 164.458C160.557 163.936 160.981 163.479 161.466 163.479H162.952C163.437 163.479 163.862 163.936 163.862 164.458V183.6C163.862 184.122 163.437 184.579 162.952 184.579H161.466C160.981 184.579 160.557 184.122 160.557 183.6V164.458Z" fill="#32313a"/>
<path d="M161.499 184.937C161.013 184.937 160.589 184.481 160.589 183.959V182.361C160.589 181.839 161.013 181.383 161.499 181.383H170.504C170.989 181.383 171.414 181.839 171.414 182.361V183.959C171.414 184.481 170.989 184.937 170.504 184.937H161.499Z" fill="#32313a"/>
<path d="M126.446 97.5725V108.334H136.453V97.5725H126.446ZM133.784 105.073H129.084V100.41H133.784V105.073Z" fill="#32313a"/>
<path d="M72.1982 78.1035V89.1261H82.4472V78.1035H72.1982ZM79.7485 85.7997H74.9273V81.0385H79.7485V85.7997Z" fill="#32313a"/>
<path d="M28.1084 136.282H17.8594V147.304H28.1084V136.282Z" fill="#32313a"/>
<path d="M46.2119 136.282H35.9629V147.304H46.2119V136.282Z" fill="#32313a"/>
<path d="M64.3437 136.282H54.0947V147.304H64.3437V136.282Z" fill="#32313a"/>
<path d="M82.4472 136.282H72.1982V147.304H82.4472V136.282Z" fill="#32313a"/>

<path d="M118.682 136.282H108.433V147.304H118.682V136.282Z" fill="#32313a"/>
<path d="M136.784 136.282H126.535V147.304H136.784V136.282Z" fill="#32313a"/>
<path d="M136.784 204.863H126.535V215.885H136.784V204.863Z" fill="#32313a"/>
<path d="M154.889 136.282H144.64V147.304H154.889V136.282Z" fill="#32313a"/>
<path d="M173.021 136.282H162.772V147.304H173.021V136.282Z" fill="#32313a"/>
<path d="M191.122 136.282H180.873V147.304H191.122V136.282Z" fill="#32313a"/>
<path d="M28.1084 117.106H17.8594V128.129H28.1084V117.106Z" fill="#32313a"/>
<path d="M46.2119 117.106H35.9629V128.129H46.2119V117.106Z" fill="#32313a"/>
<path d="M64.3437 117.106H54.0947V128.129H64.3437V117.106Z" fill="#32313a"/>
<path d="M82.4472 117.106H72.1982V128.129H82.4472V117.106Z" fill="#32313a"/>
<path d="M100.549 117.106H90.2998V128.129H100.549V117.106Z" fill="#32313a"/>
<path d="M100.549 235.844H90.2998V246.866H100.549V235.844Z" fill="#32313a"/>
<path d="M118.682 117.106H108.433V128.129H118.682V117.106Z" fill="#32313a"/>
<path d="M136.784 117.106H126.535V128.129H136.784V117.106Z" fill="#32313a"/>
<path d="M154.889 117.106H144.64V128.129H154.889V117.106Z" fill="#32313a"/>
<path d="M173.021 117.106H162.772V128.129H173.021V117.106Z" fill="#32313a"/>
<path d="M191.122 117.106H180.873V128.129H191.122V117.106Z" fill="#32313a"/>
<path d="M28.1084 97.5723H17.8594V108.595H28.1084V97.5723Z" fill="#32313a"/>
<path d="M46.2119 97.5723H35.9629V108.595H46.2119V97.5723Z" fill="#32313a"/>
<path d="M64.3437 97.5723H54.0947V108.595H64.3437V97.5723Z" fill="#32313a"/>
<path d="M82.4472 97.5723H72.1982V108.595H82.4472V97.5723Z" fill="#32313a"/>
<path d="M100.549 97.5723H90.2998V108.595H100.549V97.5723Z" fill="#32313a"/>
<path d="M118.682 97.5723H108.433V108.595H118.682V97.5723Z" fill="#32313a"/>
<path d="M154.889 97.5723H144.64V108.595H154.889V97.5723Z" fill="#32313a"/>
<path d="M173.021 97.5723H162.772V108.595H173.021V97.5723Z" fill="#32313a"/>
<path d="M191.122 97.5723H180.873V108.595H191.122V97.5723Z" fill="#32313a"/>
<path d="M28.1084 78.0708H17.8594V89.0933H28.1084V78.0708Z" fill="#32313a"/>
<path d="M10.249 117.106H0V128.129H10.249V117.106Z" fill="#32313a"/>
<path d="M10.249 97.5723H0V108.595H10.249V97.5723Z" fill="#32313a"/>
<path d="M10.249 78.0708H0V89.0933H10.249V78.0708Z" fill="#32313a"/>
<path d="M46.2119 78.0708H35.9629V89.0933H46.2119V78.0708Z" fill="#32313a"/>
<path d="M64.3437 78.0708H54.0947V89.0933H64.3437V78.0708Z" fill="#32313a"/>
<path d="M100.549 78.0708H90.2998V89.0933H100.549V78.0708Z" fill="#32313a"/>
<path d="M118.682 78.0708H108.433V89.0933H118.682V78.0708Z" fill="#32313a"/>
<path d="M136.784 78.0708H126.535V89.0933H136.784V78.0708Z" fill="#32313a"/>
<path d="M154.889 78.0708H144.64V89.0933H154.889V78.0708Z" fill="#32313a"/>
<path d="M173.021 78.0708H162.772V89.0933H173.021V78.0708Z" fill="#32313a"/>
<path d="M191.122 78.0708H180.873V89.0933H191.122V78.0708Z" fill="#32313a"/>
<path d="M209.587 117.106H199.338V128.129H209.587V117.106Z" fill="#32313a"/>
<path d="M209.587 97.5723H199.338V108.595H209.587V97.5723Z" fill="#32313a"/>
<path d="M209.587 78.0708H199.338V89.0933H209.587V78.0708Z" fill="#32313a"/>
<path d="M28.1084 58.5369H17.8594V69.5594H28.1084V58.5369Z" fill="#32313a"/>
<path d="M46.2119 58.5369H35.9629V69.5594H46.2119V58.5369Z" fill="#32313a"/>
<path d="M64.3437 58.5369H54.0947V69.5594H64.3437V58.5369Z" fill="#32313a"/>
<path d="M82.4472 58.5369H72.1982V69.5594H82.4472V58.5369Z" fill="#32313a"/>
<path d="M100.549 58.5369H90.2998V69.5594H100.549V58.5369Z" fill="#32313a"/>
<path d="M136.784 58.5369H126.535V69.5594H136.784V58.5369Z" fill="#32313a"/>
<path d="M154.889 58.5369H144.64V69.5594H154.889V58.5369Z" fill="#32313a"/>
<path d="M173.021 58.5369H162.772V69.5594H173.021V58.5369Z" fill="#32313a"/>
<path d="M191.122 58.5369H180.873V69.5594H191.122V58.5369Z" fill="#32313a"/>
<path d="M64.3437 39.0356H54.0947V50.0582H64.3437V39.0356Z" fill="#32313a"/>
<path d="M82.4472 39.0356H72.1982V50.0582H82.4472V39.0356Z" fill="#32313a"/>
<path d="M100.549 39.0356H90.2998V50.0582H100.549V39.0356Z" fill="#32313a"/>
<path d="M118.682 39.0356H108.433V50.0582H118.682V39.0356Z" fill="#32313a"/>
<path d="M136.784 39.0356H126.535V50.0582H136.784V39.0356Z" fill="#32313a"/>
<path d="M154.889 39.0356H144.64V50.0582H154.889V39.0356Z" fill="#32313a"/>
<path d="M64.3437 19.5015H54.0947V30.524H64.3437V19.5015Z" fill="#32313a"/>
<path d="M82.4472 19.5015H72.1982V30.524H82.4472V19.5015Z" fill="#32313a"/>
<path d="M100.549 19.5015H90.2998V30.524H100.549V19.5015Z" fill="#32313a"/>
<path d="M118.682 19.5015H108.433V30.524H118.682V19.5015Z" fill="#32313a"/>
<path d="M136.784 19.5015H126.535V30.524H136.784V19.5015Z" fill="#32313a"/>
<path d="M82.4472 0H72.1982V11.0226H82.4472V0Z" fill="#32313a"/>
<path d="M100.549 0H90.2998V11.0226H100.549V0Z" fill="#32313a"/>
<path d="M118.682 0H108.433V11.0226H118.682V0Z" fill="#32313a"/>
<path d="M136.784 0H126.535V11.0226H136.784V0Z" fill="#32313a"/>
<path d="M96.6691 136.119H94.1826V147.272H96.6691V136.119Z" fill="#32313a"/>
<path d="M115.074 58.6021H112.588V69.592H115.074V58.6021Z" fill="#32313a"/>
</svg>
